<?xml version="1.0" encoding="utf-8"?>
<!-- Generator: Adobe Illustrator 24.0.1, SVG Export Plug-In . SVG Version: 6.00 Build 0)  -->
<svg version="1.1" id="Capa_1" xmlns="http://www.w3.org/2000/svg" xmlns:xlink="http://www.w3.org/1999/xlink" x="0px" y="0px"
	 viewBox="0 0 131 32" style="enable-background:new 0 0 131 32;" xml:space="preserve">
<style type="text/css">
	.st0{fill:#FFFFFF;}
</style>
<g>
	<path class="st0" d="M0.3,14.5c0-1.9,0-3.5,0-5.3C5.4,8,9,5.1,10.7,0c1,0,1.9,0,3.1,0c0.1,3,0,6,0,9.1c1.5,0,2.9,0,4.2,0
		c0.3,1.2,0.4,3.4,0.1,5.2c-1.4,0-2.8,0.1-4.2,0.1c-0.1,0.4-0.1,0.7-0.1,1c0,2.1,0,4.2,0,6.2c0,2.3,1.4,3.4,3.7,3
		c2.5-0.5,4.2-2,5.4-4.2c0.3-0.6,0.4-1.4,0.5-2.1c0.1-2.3,0-4.6,0-7c0-0.5,0-1,0-1.5c1.5-0.8,3-1.5,4.8-1.1c1.1,0.3,1.8,0.9,2,1.9
		c0.2,1,0.4,2,0.4,3.1c0.1,2.8,0,5.6,0,8.5c0,0.8,0.1,1.6,0.7,2.2c2.9,0.8,5.4-1,5.4-3.9c0-3.2,0-6.4,0-9.6c0-0.5,0-1,0-1.5
		c2.5,0,4.9,0,7.3,0c0.3,1,0.4,19.7,0.1,22.4c-3,1.1-6.2,1.1-7.6-2.3c-0.1,0-0.3,0.1-0.4,0.1c-2.3,2.4-5.3,3-8.4,2.7
		c-2-0.2-3.2-1.6-3.8-3.5c-0.2-0.5-0.3-0.9-0.5-1.6c-0.6,0.5-1.1,0.8-1.5,1.2c-2.3,2.3-5.1,3.5-8.2,4c-1.4,0.2-2.7,0.1-3.9-0.3
		c-2.6-0.9-4.2-2.7-4.6-5.4C5.1,25.3,5,24.1,5,22.9c0-2.8,0-5.5,0-8.5C3.4,14.5,1.9,14.5,0.3,14.5z"/>
	<path class="st0" d="M65.6,1.2c1.4-0.9,2.9-1.6,4.7-1.1c1.1,0.3,1.8,0.9,1.9,2c0.2,1.2,0.3,2.4,0.4,3.7c0.1,1.3,0,2.7,0,4
		c0,0.5,0.1,0.9,0.1,1.6c0.5-0.3,0.9-0.4,1.2-0.6c1.2-0.7,2.5-1.2,3.9-1.4c3.4-0.4,5.5,1.4,6.6,3.9c2.1,4.7,1.8,9.4-0.9,13.9
		c-1.7,2.9-4.4,4.3-7.6,4.8c-3.5,0.5-7,0-10.3-1.3C65.6,20.9,65.6,11.1,65.6,1.2z M72.7,25.8c4.7,0.5,6.9-4.5,5.8-7.4
		c-0.5-1.4-1.4-1.8-2.6-1.7c-1.4,0-2.2,0.9-3.2,1.7C72.7,20.8,72.7,23.3,72.7,25.8z"/>
	<path class="st0" d="M89.2,9.9C90.4,9,91.7,8.6,93,8.6c1.9,0,2.8,0.5,3.2,2.8c0.2,1.2,0.3,2.4,0.3,3.5c0,2.5,0,4.9,0,7.4
		c0,2,1.2,2.9,3.1,2.1c2.1-0.8,3-2.5,2.9-4.2c-0.1-3.1,0-6.2,0-9.3c0-0.5,0-1,0.1-1.5c2.4,0,4.8,0,7.1,0c0.3,1.1,0.4,19.4,0.1,22.4
		c-1.4,0.4-2.8,0.7-4.4,0.4c-1.7-0.3-2.4-1.5-3.1-2.9c-0.2,0.1-0.5,0.2-0.6,0.3c-1.4,1.7-3.4,2.3-5.5,2.6c-0.9,0.1-1.8,0.2-2.8,0
		c-2.5-0.6-4.2-2.4-4.4-4.9c0-0.4,0-0.9,0-1.3c0-4.8,0-9.7,0-14.5C89.2,10.9,89.2,10.4,89.2,9.9z"/>
	<path class="st0" d="M113.9,24.7c1.6,0.9,3.1,1.6,4.7,1.7c0.7,0.1,1.4,0.1,2-0.1c1.4-0.3,1.6-0.6,1.5-2.4c-1.1-0.5-2.2-1-3.3-1.6
		c-1.1-0.6-2.3-1.2-3.3-2c-2.3-2-2.7-5.3-1.1-7.9c1.1-1.8,2.8-2.8,4.8-3.4c2.4-0.6,4.8-0.7,7.1,0.1c1.3,0.4,2.7,1,4.2,1.5
		c-0.3,1-0.6,1.8-0.9,2.6c-0.5,1.2-1.2,1.6-2.4,1.4c-0.7-0.1-1.3-0.3-2-0.4c-0.6-0.1-1.2-0.2-1.8-0.1c-1.4,0.1-1.7,0.6-1.4,2.3
		c0.6,0.3,1.3,0.7,2,1c1.7,0.9,3.5,1.7,4.9,3.2c2.6,2.6,2.9,8.4-2.4,10.5c-1.8,0.7-3.7,1.3-5.6,1.1c-2.1-0.2-4.1-0.5-6-1.4
		c-0.7-0.3-1.3-0.6-2.1-1C113.1,28.1,113.4,26.5,113.9,24.7z"/>
	<path class="st0" d="M47.7,9.8C48.8,9,50,8.7,51.2,8.6c1.8-0.1,3.3,0.8,3.8,3.4c0.1,0.6,0.2,1.3,0.3,1.9c0,0.1,0.1,0.2,0.3,0.5
		c1.6-3,3.4-5.6,6.9-6.2c0.3,1.1,0.4,6.2,0.2,9c-0.6,0.1-1.3,0.2-2,0.4c-2.6,0.7-4.5,2.2-5.2,4.9c-0.1,0.5-0.2,1.1-0.2,1.6
		c0,2.1,0,4.3,0,6.4c0,0.5,0,1,0,1.5c-2.5,0-5,0-7.5,0C47.7,24.6,47.7,17.3,47.7,9.8z"/>
</g>
</svg>
