<?xml version="1.0" encoding="utf-8"?>
<!-- Generator: Adobe Illustrator 24.0.1, SVG Export Plug-In . SVG Version: 6.00 Build 0)  -->
<svg version="1.1" id="Capa_1" xmlns="http://www.w3.org/2000/svg" xmlns:xlink="http://www.w3.org/1999/xlink" x="0px" y="0px"
	 viewBox="0 0 36.2 38.8" style="enable-background:new 0 0 36.2 38.8;" xml:space="preserve">
<style type="text/css">
	.st0{fill:#FFFFFF;}
</style>
<path class="st0" d="M25,27.6c-0.3,0.3-0.6,0.7-0.9,1.1l-11.4-6.9c0.3-0.8,0.5-1.6,0.5-2.4c0-0.9-0.2-1.7-0.5-2.4l11.4-6.9
	c1.2,1.8,3.2,3.1,5.5,3.1c3.6,0,6.6-3,6.6-6.6S33.2,0,29.6,0S23,3,23,6.6c0,0.8,0.2,1.6,0.4,2.3l-11.4,6.9c-1.2-1.8-3.2-3-5.5-3
	c-3.6,0-6.6,3-6.6,6.6C0,23,3,26,6.6,26c2.3,0,4.3-1.2,5.5-3l11.4,6.9c-0.3,0.7-0.4,1.5-0.4,2.3c0,1.8,0.7,3.4,1.9,4.7
	c1.3,1.3,3,1.9,4.7,1.9c1.7,0,3.4-0.6,4.7-1.9c1.2-1.2,1.9-2.9,1.9-4.7c0-1.8-0.7-3.4-1.9-4.7C31.7,25,27.5,25,25,27.6L25,27.6z
	 M29.6,1.3c2.9,0,5.3,2.4,5.3,5.3c0,2.9-2.4,5.3-5.3,5.3c-2.9,0-5.3-2.4-5.3-5.3C24.4,3.7,26.7,1.3,29.6,1.3L29.6,1.3z M6.6,24.7
	c-2.9,0-5.3-2.4-5.3-5.3c0-2.9,2.4-5.3,5.3-5.3c2.9,0,5.3,2.4,5.3,5.3C11.8,22.3,9.5,24.7,6.6,24.7L6.6,24.7z M33.3,36
	c-2.1,2.1-5.4,2.1-7.4,0c-1-1-1.5-2.3-1.5-3.7c0-1.4,0.5-2.7,1.5-3.7c1-1,2.4-1.5,3.7-1.5c1.4,0,2.7,0.5,3.7,1.5
	c1,1,1.5,2.3,1.5,3.7C34.9,33.7,34.3,35,33.3,36L33.3,36z M33.3,36"/>
</svg>
